<svg width="22" height="22" viewBox="0 0 22 22" fill="none" xmlns="http://www.w3.org/2000/svg">
<path d="M13.7271 2.76741L14.6071 1.17975C14.6184 1.1594 14.6255 1.13704 14.6281 1.11394C14.6307 1.09084 14.6288 1.06745 14.6223 1.0451C14.6159 1.02276 14.6052 1.0019 14.5907 0.983714C14.5762 0.96553 14.5583 0.950378 14.5379 0.939123C14.5176 0.927868 14.4952 0.920729 14.4721 0.918116C14.449 0.915503 14.4256 0.917465 14.4033 0.923892C14.3809 0.930319 14.3601 0.941083 14.3419 0.955571C14.3237 0.970059 14.3085 0.987987 14.2973 1.00833L13.4081 2.6125C12.6491 2.27965 11.8293 2.1078 11.0005 2.1078C10.1717 2.1078 9.35189 2.27965 8.59287 2.6125L7.7037 1.00833C7.68097 0.967002 7.64275 0.936395 7.59745 0.923244C7.55216 0.910093 7.50349 0.915475 7.46216 0.938206C7.42083 0.960937 7.39022 0.999156 7.37707 1.04445C7.36392 1.08975 7.3693 1.13842 7.39203 1.17975L8.27203 2.76741C7.435 3.18069 6.72781 3.81631 6.22789 4.60467C5.72797 5.39302 5.4546 6.30373 5.4377 7.23708H16.5633C16.5462 6.30354 16.2726 5.3927 15.7723 4.60432C15.2721 3.81595 14.5645 3.18044 13.7271 2.76741ZM8.43337 5.20116C8.34141 5.20116 8.25152 5.17388 8.17507 5.12278C8.09862 5.07167 8.03906 4.99903 8.00391 4.91405C7.96876 4.82908 7.95961 4.73559 7.97761 4.64541C7.99562 4.55523 8.03998 4.47242 8.10506 4.40746C8.17015 4.3425 8.25305 4.29831 8.34326 4.28048C8.43348 4.26265 8.52695 4.27199 8.61186 4.30731C8.69676 4.34262 8.76928 4.40233 8.82024 4.47888C8.8712 4.55543 8.8983 4.64537 8.89812 4.73733C8.89787 4.86043 8.8488 4.97841 8.76167 5.06537C8.67454 5.15233 8.55647 5.20116 8.43337 5.20116ZM13.5685 5.20116C13.4766 5.20116 13.3867 5.17388 13.3102 5.12278C13.2338 5.07167 13.1742 4.99903 13.1391 4.91405C13.1039 4.82908 13.0948 4.73559 13.1128 4.64541C13.1308 4.55523 13.1751 4.47242 13.2402 4.40746C13.3053 4.3425 13.3882 4.29831 13.4784 4.28048C13.5686 4.26265 13.6621 4.27199 13.747 4.30731C13.8319 4.34262 13.9044 4.40233 13.9554 4.47888C14.0064 4.55543 14.0335 4.64537 14.0333 4.73733C14.033 4.86043 13.984 4.97841 13.8968 5.06537C13.8097 5.15233 13.6916 5.20116 13.5685 5.20116ZM5.43587 15.7401C5.43563 15.9171 5.47032 16.0924 5.53797 16.2559C5.60561 16.4194 5.70487 16.568 5.83006 16.6931C5.95524 16.8182 6.10389 16.9174 6.26748 16.9849C6.43107 17.0525 6.60639 17.087 6.78337 17.0867H7.67528V19.8367C7.67528 20.1674 7.80668 20.4846 8.04056 20.7185C8.27444 20.9524 8.59165 21.0838 8.92241 21.0838C9.25317 21.0838 9.57038 20.9524 9.80426 20.7185C10.0381 20.4846 10.1695 20.1674 10.1695 19.8367V17.0867H11.8324V19.8367C11.8324 20.1673 11.9637 20.4844 12.1975 20.7182C12.4313 20.952 12.7484 21.0833 13.079 21.0833C13.4097 21.0833 13.7268 20.952 13.9606 20.7182C14.1944 20.4844 14.3257 20.1673 14.3257 19.8367V17.0867H15.2185C15.3953 17.0868 15.5703 17.0521 15.7336 16.9845C15.897 16.9169 16.0454 16.8178 16.1703 16.6928C16.2953 16.5678 16.3944 16.4194 16.462 16.2561C16.5296 16.0928 16.5643 15.9177 16.5642 15.741V7.67708H5.43587V15.7401ZM3.72445 7.46258C3.56066 7.46258 3.39847 7.49486 3.24716 7.55757C3.09585 7.62027 2.95838 7.71218 2.8426 7.82805C2.72682 7.94391 2.63501 8.08145 2.57242 8.2328C2.50982 8.38416 2.47766 8.54637 2.47778 8.71017V13.9067C2.47778 14.0705 2.51003 14.2326 2.57268 14.3838C2.63533 14.5351 2.72716 14.6725 2.84292 14.7883C2.95869 14.904 3.09612 14.9959 3.24737 15.0585C3.39862 15.1212 3.56074 15.1534 3.72445 15.1534C3.88816 15.1534 4.05028 15.1212 4.20153 15.0585C4.35278 14.9959 4.49021 14.904 4.60598 14.7883C4.72174 14.6725 4.81357 14.5351 4.87622 14.3838C4.93887 14.2326 4.97112 14.0705 4.97112 13.9067V8.71017C4.97112 8.54645 4.93887 8.38434 4.87622 8.23309C4.81357 8.08183 4.72174 7.9444 4.60598 7.82864C4.49021 7.71287 4.35278 7.62105 4.20153 7.55839C4.05028 7.49574 3.88816 7.4635 3.72445 7.4635M18.2738 7.4635C18.11 7.4635 17.9478 7.49577 17.7965 7.55848C17.6452 7.62119 17.5077 7.7131 17.3919 7.82896C17.2762 7.94482 17.1843 8.08236 17.1217 8.23372C17.0592 8.38508 17.027 8.54729 17.0271 8.71108V13.9077C17.0271 14.0714 17.0594 14.2335 17.122 14.3847C17.1847 14.536 17.2765 14.6734 17.3923 14.7892C17.508 14.905 17.6455 14.9968 17.7967 15.0594C17.948 15.1221 18.1101 15.1543 18.2738 15.1543C18.4375 15.1543 18.5996 15.1221 18.7509 15.0594C18.9021 14.9968 19.0395 14.905 19.1553 14.7892C19.2711 14.6734 19.3629 14.536 19.4256 14.3847C19.4882 14.2335 19.5205 14.0714 19.5205 13.9077V8.71017C19.5205 8.37953 19.3891 8.06243 19.1553 7.82864C18.9215 7.59484 18.6044 7.4635 18.2738 7.4635Z" fill="white" fill-opacity="0.5"/>
</svg>
