<svg width="17" height="20" viewBox="0 0 17 20" fill="none" xmlns="http://www.w3.org/2000/svg">
<path d="M13.6902 18.72C12.6285 19.7492 11.4693 19.5867 10.3535 19.0992C9.17267 18.6008 8.08933 18.5792 6.8435 19.0992C5.2835 19.7708 4.46017 19.5758 3.5285 18.72C-1.75817 13.2708 -0.978165 4.9725 5.0235 4.66917C6.486 4.745 7.50433 5.47083 8.36017 5.53583C9.6385 5.27583 10.8627 4.52833 12.2277 4.62583C13.8635 4.75583 15.0985 5.40583 15.911 6.57583C12.531 8.60167 13.3327 13.0542 16.431 14.3C15.8135 15.925 15.0118 17.5392 13.6793 18.7308L13.6902 18.72ZM8.25183 4.60417C8.08933 2.18833 10.0502 0.195 12.3035 0C12.6177 2.795 9.7685 4.875 8.25183 4.60417Z" fill="white" fill-opacity="0.5"/>
</svg>
